<?xml version="1.0" encoding="utf-8"?>
<!-- Generator: Adobe Illustrator 17.1.0, SVG Export Plug-In . SVG Version: 6.00 Build 0)  -->
<!DOCTYPE svg PUBLIC "-//W3C//DTD SVG 1.1//EN" "http://www.w3.org/Graphics/SVG/1.1/DTD/svg11.dtd">
<svg version="1.1" id="Layer_12" xmlns="http://www.w3.org/2000/svg" xmlns:xlink="http://www.w3.org/1999/xlink" x="0px" y="0px"
	 viewBox="0 0 64 64" enable-background="new 0 0 64 64" xml:space="preserve">
<g>
	<path fill-rule="evenodd" clip-rule="evenodd" fill="#296BB2" d="M19.4,34.1C19.4,34.1,19.4,34.1,19.4,34.1c0,0-0.1,0.1-0.2,0.1
		c-0.1,0-0.3,0-0.4,0h-2.6v-1.5h2.2c0.2,0,0.4,0,0.6,0.1c0.1,0,0.2,0.1,0.3,0.1c0.1,0.1,0.1,0.2,0.2,0.3c0,0.1,0.1,0.2,0.1,0.4
		C19.6,33.9,19.5,34,19.4,34.1L19.4,34.1z M18.9,28.3H16c-0.1,0-0.2,0-0.3,0c-0.1,0-0.3,0-0.5,0.2c-0.1,0.1-0.3,0.2-0.3,0.4
		c-0.1,0.2-0.1,0.4-0.1,0.5c0,0.1,0,0.3,0,0.4v4.5c0,0.2,0,0.3,0,0.5c0,0.1,0,0.3,0.2,0.5c0.1,0.1,0.2,0.3,0.4,0.3
		c0.2,0.1,0.4,0.1,0.5,0.1c0.1,0,0.3,0,0.4,0h2.6c0.3,0,0.6,0,1-0.1c0.2-0.1,0.4-0.1,0.5-0.3c0.2-0.1,0.3-0.3,0.5-0.5
		c0.2-0.3,0.3-0.8,0.3-1.3c0-0.4-0.1-0.7-0.2-1c-0.1-0.2-0.2-0.4-0.4-0.6c0.1-0.2,0.3-0.3,0.4-0.6c0.1-0.3,0.2-0.6,0.2-1
		c0-0.5-0.1-0.9-0.3-1.3c-0.1-0.2-0.3-0.4-0.5-0.5c-0.3-0.2-0.5-0.3-0.8-0.3C19.3,28.3,19.1,28.3,18.9,28.3L18.9,28.3z M18.8,29.8
		c0.2,0,0.4,0,0.5,0.1c0.1,0,0.1,0,0.1,0c0,0,0,0,0,0c0,0.1,0.1,0.2,0.1,0.5c0,0.2,0,0.3-0.1,0.4c0,0.1-0.1,0.2-0.2,0.3
		c-0.1,0.1-0.1,0.1-0.3,0.1c-0.1,0-0.3,0.1-0.6,0.1h-2.2v-1.5H18.8z"/>
	<path fill-rule="evenodd" clip-rule="evenodd" fill="#296BB2" d="M11.9,34.1c0,0,0,0.1-0.1,0.1c-0.1,0-0.2,0.1-0.3,0.1H9.3
		c-0.1,0-0.3,0-0.3-0.1c-0.1,0-0.1-0.1-0.1-0.1c-0.1-0.3-0.3-1-0.3-2.1c0-1.1,0.2-1.7,0.3-2.1c0,0,0-0.1,0.1-0.1
		c0.1,0,0.2-0.1,0.3-0.1h2.1c0.1,0,0.3,0,0.3,0.1c0.1,0,0.1,0.1,0.1,0.1c0.1,0.3,0.3,1,0.3,2.1C12.2,33.1,12.1,33.7,11.9,34.1
		L11.9,34.1z M11.6,28.3H9.3c-0.3,0-0.6,0.1-0.9,0.2C8,28.7,7.7,29,7.5,29.4c-0.2,0.6-0.4,1.4-0.4,2.6c0,1.2,0.2,2.1,0.4,2.6
		C7.7,35,8,35.3,8.3,35.5c0.3,0.2,0.7,0.2,1,0.2h2.1c0.3,0,0.7-0.1,1-0.2c0.3-0.2,0.6-0.5,0.8-0.9c0.2-0.6,0.4-1.4,0.4-2.6
		c0-1.2-0.2-2.1-0.4-2.6c-0.2-0.4-0.5-0.7-0.8-0.9C12.2,28.3,11.9,28.3,11.6,28.3z"/>
	<path fill-rule="evenodd" clip-rule="evenodd" fill="#296BB2" d="M26.8,34.1c0,0,0,0.1-0.1,0.1c-0.1,0-0.2,0.1-0.3,0.1h-2.1
		c-0.1,0-0.3,0-0.3-0.1c-0.1,0-0.1-0.1-0.1-0.1c-0.1-0.3-0.3-1-0.3-2.1c0-1.1,0.2-1.7,0.3-2.1c0,0,0-0.1,0.1-0.1
		c0.1,0,0.2-0.1,0.3-0.1h2.1c0.1,0,0.3,0,0.3,0.1c0.1,0,0.1,0.1,0.1,0.1c0.1,0.3,0.3,1,0.3,2.1C27.1,33.1,26.9,33.7,26.8,34.1
		L26.8,34.1z M26.4,28.3h-2.3c-0.3,0-0.6,0.1-0.9,0.2c-0.3,0.2-0.6,0.5-0.8,0.9c-0.2,0.6-0.4,1.4-0.4,2.6c0,1.2,0.2,2.1,0.4,2.6
		c0.2,0.4,0.5,0.7,0.8,0.9c0.3,0.2,0.7,0.2,1,0.2h2.1c0.3,0,0.7-0.1,1-0.2c0.3-0.2,0.6-0.5,0.8-0.9c0.2-0.6,0.4-1.4,0.4-2.6
		c0-1.2-0.2-2.1-0.4-2.6c-0.2-0.4-0.5-0.7-0.8-0.9C27,28.3,26.7,28.3,26.4,28.3z"/>
	<path fill-rule="evenodd" clip-rule="evenodd" fill="#296BB2" d="M1.5,29.8h2.7c0.2,0,0.3,0,0.4,0.1c0.1,0,0.1,0.1,0.1,0.1
		c0.1,0.2,0.2,0.5,0.2,1c0,0.4-0.1,0.6-0.2,0.8c-0.1,0.2-0.3,0.4-0.6,0.4c-0.2,0.1-0.5,0.1-0.6,0.1c0,0,0,0-0.1,0c0,0,0,0,0,0
		c0,0,0,0,0,0v0l0,0h-2V29.8L1.5,29.8z M4.3,28.3h-3c-0.1,0-0.2,0-0.3,0c-0.1,0-0.3,0-0.5,0.2c-0.1,0.1-0.3,0.2-0.3,0.4
		C0,29,0,29.2,0,29.3c0,0.1,0,0.3,0,0.4v0v6h1.5v-2.1h1.9c0,0,0.1,0,0.1,0c0,0,0,0,0,0l1.1,2.1h1.7l-1.3-2.4c0,0,0.1,0,0.1,0
		c0.3-0.2,0.7-0.5,0.9-0.9c0.2-0.4,0.4-0.9,0.4-1.5c0-0.7-0.2-1.2-0.4-1.6c-0.2-0.4-0.5-0.7-0.9-0.8C4.9,28.3,4.6,28.3,4.3,28.3z"/>
	<path fill-rule="evenodd" clip-rule="evenodd" fill="#E30021" d="M62.5,32.3H59v-0.2c0-1.2,0.3-1.8,0.6-2.2c0-0.1,0.1-0.1,0.2-0.1
		c0.1,0,0.3-0.1,0.4-0.1h1.2c0.2,0,0.3,0,0.4,0.1c0.1,0,0.2,0.1,0.2,0.1c0.2,0.4,0.6,1,0.6,2.2V32.3L62.5,32.3z M64,35.1v-3.3
		c-0.1-1.2-0.4-2.1-0.8-2.7c-0.2-0.3-0.6-0.6-0.9-0.7c-0.3-0.1-0.6-0.2-0.8-0.2c0,0,0,0,0,0H60c0,0,0,0,0,0c-0.3,0-0.5,0.1-0.8,0.2
		c-0.3,0.1-0.7,0.3-0.9,0.7c-0.4,0.6-0.8,1.6-0.8,3V35c0,0.4,0.3,0.7,0.7,0.7h0.1c0.4,0,0.7-0.3,0.7-0.7c0-0.3,0-0.7,0-1.2h3.6V35
		c0,0.4,0.3,0.7,0.7,0.7h0.1C63.7,35.7,64,35.5,64,35.1L64,35.1z M40.5,28.3L40.5,28.3L40.5,28.3l-1.5,0c0,0,0,0,0,0
		c-0.3,0-0.5,0.1-0.8,0.2c-0.3,0.1-0.7,0.4-0.9,0.7c-0.4,0.6-0.8,1.6-0.8,3V35c0,0.4,0.3,0.7,0.7,0.7h0.1c0.4,0,0.7-0.3,0.7-0.7
		v-1.2h3.6V35c0,0.4,0.3,0.7,0.7,0.7h0.1c0.4,0,0.7-0.3,0.7-0.7v-2.9c0-1.4-0.4-2.4-0.8-3c-0.2-0.3-0.6-0.6-0.9-0.7
		C41.1,28.3,40.8,28.3,40.5,28.3L40.5,28.3L40.5,28.3L40.5,28.3z M41.6,32.3H38v-0.2c0-1.2,0.3-1.8,0.6-2.2c0-0.1,0.1-0.1,0.2-0.1
		c0.1,0,0.3-0.1,0.4-0.1h1.2c0.2,0,0.3,0,0.4,0.1c0.1,0,0.2,0.1,0.2,0.1c0.2,0.4,0.6,1,0.6,2.2V32.3L41.6,32.3z M55.3,31.3
		c-0.2-0.1-0.4-0.1-0.6-0.1h-2c-0.2,0-0.4,0-0.5-0.1c-0.1,0-0.1-0.1-0.1-0.1C52,31,52,30.8,52,30.5c0-0.3,0.1-0.5,0.1-0.6
		c0,0,0,0,0.1-0.1c0.1,0,0.3-0.1,0.5-0.1h2.9c0.4,0,0.7-0.3,0.7-0.7v-0.8c-0.8,0-2.6,0-3.6,0c-0.1,0-0.3,0-0.4,0
		c-0.4,0-0.8,0.2-1.1,0.4c-0.4,0.3-0.6,0.7-0.7,1.1c0,0,0,0,0,0c-0.1,0.4-0.1,0.9,0,1.3c0,0,0,0.1,0,0.1c0.1,0.4,0.3,0.7,0.6,1
		c0.3,0.3,0.8,0.4,1.2,0.5c0.1,0,0.2,0,0.3,0h1.8c0.2,0,0.5,0.1,0.6,0.4c0.1,0.3,0.1,0.5,0,0.8c0,0.1-0.1,0.2-0.1,0.2
		c-0.1,0.1-0.1,0.1-0.2,0.1h-3.3c-0.4,0-0.7,0.3-0.7,0.7V35c0,0.4,0.3,0.7,0.7,0.7h3.3c0.2,0,0.4,0,0.6-0.1c0.2-0.1,0.4-0.2,0.6-0.4
		c0.3-0.3,0.7-0.9,0.7-1.8c0-0.8-0.3-1.5-0.7-1.8C55.7,31.5,55.5,31.4,55.3,31.3L55.3,31.3z M48.6,31.3c-0.2-0.1-0.4-0.1-0.6-0.1h-2
		c-0.2,0-0.4,0-0.5-0.1c-0.1,0-0.1-0.1-0.1-0.1c-0.1-0.1-0.1-0.3-0.1-0.6c0-0.3,0.1-0.5,0.1-0.6c0,0,0,0,0.1-0.1
		c0.1,0,0.3-0.1,0.5-0.1h2.9c0.4,0,0.7-0.3,0.7-0.7v-0.8H46c-0.1,0-0.3,0-0.4,0c-0.4,0-0.8,0.2-1.1,0.4c-0.4,0.3-0.6,0.7-0.7,1.1
		c0,0,0,0,0,0c-0.1,0.4-0.1,0.9,0,1.3c0,0,0,0.1,0,0.1c0.1,0.4,0.3,0.7,0.6,1c0.3,0.3,0.8,0.4,1.2,0.5c0.1,0,0.2,0,0.3,0h1.8
		c0.2,0,0.5,0.1,0.6,0.4c0.1,0.3,0.1,0.5,0,0.8c0,0.1-0.1,0.2-0.1,0.2c-0.1,0.1-0.1,0.1-0.2,0.1h-3.3c-0.4,0-0.7,0.3-0.7,0.7V35
		c0,0.4,0.3,0.7,0.7,0.7H48c0.2,0,0.4,0,0.6-0.1c0.2-0.1,0.4-0.2,0.6-0.4c0.3-0.3,0.7-0.9,0.7-1.8c0-0.8-0.3-1.5-0.7-1.8
		C49,31.5,48.8,31.4,48.6,31.3L48.6,31.3z M35.1,33.4c-0.4-0.6-0.9-1.1-1.4-1.4c0,0,0,0,0,0c0.2-0.2,0.5-0.4,0.8-0.7
		c0.3-0.3,0.5-0.6,0.7-0.9c0.2-0.3,0.4-0.7,0.4-1.2v-0.2c0-0.4-0.3-0.7-0.7-0.7h-0.4c-0.2,0-0.4,0.2-0.4,0.4c0,0.3,0,0.6-0.2,0.9
		c0,0,0,0.1-0.1,0.1c-0.3,0.4-0.7,0.8-1.1,1.2c-0.2,0.2-0.4,0.3-0.5,0.4c0,0,0,0,0,0c-0.1,0-0.2,0-0.3,0c-0.2,0-0.5,0-0.8,0v-2.3
		c0-0.4-0.3-0.7-0.7-0.7h-0.1c-0.4,0-0.7,0.3-0.7,0.7V35c0,0.4,0.3,0.7,0.7,0.7h0.1c0.4,0,0.7-0.3,0.7-0.7v-2.3c0.3,0,0.6,0,0.8,0
		c0.1,0,0.2,0,0.3,0c0.2,0.2,0.6,0.5,1,0.8c0.3,0.2,0.5,0.5,0.7,0.8c0.2,0.2,0.2,0.4,0.2,0.5V35c0,0.4,0.3,0.7,0.7,0.7h0.1
		c0.4,0,0.7-0.3,0.7-0.7l0-0.2C35.6,34.3,35.4,33.8,35.1,33.4z"/>
</g>
</svg>
